<?xml version="1.0" standalone="no"?>
<!DOCTYPE svg PUBLIC "-//W3C//DTD SVG 1.1//EN" "http://www.w3.org/Graphics/SVG/1.1/DTD/svg11.dtd" >
<!--
2013-9-30: Created.
-->
<svg>
<metadata>
Created by iconfont
</metadata>
<defs>

<font id="iconfont" horiz-adv-x="1024" >
  <font-face
    font-family="iconfont"
    font-weight="500"
    font-stretch="normal"
    units-per-em="1024"
    ascent="896"
    descent="-128"
  />
    <missing-glyph />
    
    <glyph glyph-name="x" unicode="x" horiz-adv-x="1001"
d="M281 543q-27 -1 -53 -1h-83q-18 0 -36.5 -6t-32.5 -18.5t-23 -32t-9 -45.5v-76h912v41q0 16 -0.5 30t-0.5 18q0 13 -5 29t-17 29.5t-31.5 22.5t-49.5 9h-133v-97h-438v97zM955 310v-52q0 -23 0.5 -52t0.5 -58t-10.5 -47.5t-26 -30t-33 -16t-31.5 -4.5q-14 -1 -29.5 -0.5
t-29.5 0.5h-32l-45 128h-439l-44 -128h-29h-34q-20 0 -45 1q-25 0 -41 9.5t-25.5 23t-13.5 29.5t-4 30v167h911zM163 247q-12 0 -21 -8.5t-9 -21.5t9 -21.5t21 -8.5q13 0 22 8.5t9 21.5t-9 21.5t-22 8.5zM316 123q-8 -26 -14 -48q-5 -19 -10.5 -37t-7.5 -25t-3 -15t1 -14.5
t9.5 -10.5t21.5 -4h37h67h81h80h64h36q23 0 34 12t2 38q-5 13 -9.5 30.5t-9.5 34.5q-5 19 -11 39h-368zM336 498v228q0 11 2.5 23t10 21.5t20.5 15.5t34 6h188q31 0 51.5 -14.5t20.5 -52.5v-227h-327z" />
    

    
    <glyph glyph-name="llalbumcamerafire" unicode="&#58880;" d="M891.357516-84.256594 133.199163-84.256594c-37.605479 0-68.083631 30.289863-68.083631 67.652819L65.115532 483.188182c0 37.363979 30.479175 67.64668 68.083631 67.64668l127.812991 0c43.883463 5.980201 57.122999 38.883589 57.122999 38.883589l4.809539-0.424672c20.011776 37.852096 56.18565 65.22963 119.42188 65.22963l137.331785 0c56.488549 0 103.359043-21.852704 122.748648-66.653049l5.584182-11.270694 2.238994 0.157589c0 0 8.037047-15.733333 31.377638-25.922393l149.709697 0c37.5932 0 68.071352-30.2827 68.071352-67.64668l0-499.791957C959.428867-53.966731 928.950715-84.256594 891.357516-84.256594zM512.271688 421.224945c-110.954021 0-200.896496-89.943498-200.896496-200.896496 0-110.954021 89.942475-200.896496 200.896496-200.896496 110.951975 0 200.895473 89.943498 200.895473 200.896496C713.168184 331.28247 623.223662 421.224945 512.271688 421.224945zM803.719526 473.22732c-21.493523 0-38.908148-17.498536-38.908148-39.08518 0-21.593807 17.415648-39.092343 38.908148-39.092343 21.490453 0 38.907125 17.498536 38.907125 39.092343C842.626651 455.728784 825.20998 473.22732 803.719526 473.22732zM512.232802 84.440549c-75.057463 0-135.901203 60.932768-135.901203 136.103818 0 75.16491 60.84374 136.097678 135.901203 136.097678 75.069743 0 135.914506-60.932768 135.914506-136.097678C648.148331 145.372294 587.303568 84.440549 512.232802 84.440549z"  horiz-adv-x="1024" />

    
    <glyph glyph-name="jikediancanicon35" unicode="&#59281;" d="M802.336 724 802.336 723.968 802.336 723.968ZM203.008 513.984l168 0 0-168-168 0 0 168ZM800 524 800 725.984 64 725.984l0-775.072C64-92.256 94.944-116 138.144-116l742.336 0C923.68-116 960-92.256 960-49.088L960 524 800 524zM480 556l192 0 0-58.016-192 0L480 556zM480 355.008l192 0 0-56-192 0L480 355.008zM160 556l256 0 0-256L160 300 160 556zM672 12 163.008 12l0 55.008L672 67.008 672 12zM672 140 160 140l0 50.016 512 0L672 140zM919.008-49.12c0-21.568-16.96-34.88-38.528-34.88l-39.072 0C819.84-84 800-70.688 800-49.12L800 419.744l0-0.064L800 492l119.008 0L919.008-49.12z"  horiz-adv-x="1024" />

    
    <glyph glyph-name="rencai" unicode="&#59014;" d="M444.838879-144.094424c1.391696 13.789051 2.346441 25.827225 3.939729 37.724183 2.745531 20.632923 6.048763 41.166585 8.993838 61.759599 1.391696 10.345626 2.306532 20.73423 3.541663 31.100322 2.068102 15.915481 4.177136 31.7931 6.166443 47.671743 1.233084 9.272177 2.428306 18.542308 3.421936 27.856441 1.354857 13.865799 2.349511 27.79402 3.78214 41.682331 0.796132 7.419993 2.346441 14.782681 3.062755 22.186302 1.51347 15.258519-4.616134 29.04757-8.594749 43.271526-1.352811 5.074575-3.221368 10.070356-3.89982 15.22168-0.159636 1.612731 2.944052 5.252631 4.536316 5.252631 29.008684 0.340761 57.978483 0.240477 86.948281 0.25992 4.180206 0 5.730515-1.055029 4.180206-5.829775-3.26537-10.007935-5.771447-20.193925-8.518001-30.321586-1.113357-4.060479-2.466168-8.099469-3.14155-12.218276-2.269693-14.204513-0.319272-28.131711 2.544963-42.11826 2.069125-9.949606 2.706645-20.155039 3.662413-30.264281 1.312902-14.72333 2.068102-29.485545 3.818979-44.131103 2.664689-21.447475 6.048763-42.794665 8.952906-64.206324 1.352811-9.529027 2.466168-19.119453 3.382027-28.689413 1.393743-14.406105 2.427282-28.909423 3.820002-43.294039 0.835018-8.775874 1.949398-17.568121 3.342118-26.244734 0.239454-1.670036 2.388397-3.044336 5.095042-6.126534 4.058432 15.85613 7.281847 29.566386 11.022031 43.173289 3.700275 13.907755 7.998161 27.677363 11.859096 41.524742 2.664689 9.709129 4.89345 19.517519 7.481392 29.228695 2.865257 10.604522 5.92699 21.109784 8.715499 31.734772 2.664689 9.650801 4.851495 19.419282 7.520277 29.068036 2.706645 10.385535 5.731538 20.712741 8.595772 31.099299 2.545986 9.609869 5.013177 19.320021 7.599072 28.970822 2.90619 10.881838 6.048763 21.685905 8.954953 32.631188 2.545986 9.906627 4.774747 19.954471 7.40055 29.864168 2.746554 10.384511 5.889127 20.651342 8.714476 30.977525 2.585895 9.411347 4.855588 18.902512 7.361665 28.352745 1.11438 4.317329 1.195222 10.06831 3.979638 12.475126 3.264347 2.746554 9.749038 4.595668 13.529131 3.263323 17.508769-6.407943 34.501792-14.228049 51.850925-21.150716 17.828041-7.143701 35.893488-13.749142 53.839209-20.711717 14.247492-5.551436 28.453029-11.181667 42.580794-16.97358 18.264992-7.440459 35.654035-16.23373 51.571562-28.1532 14.363126-10.723226 25.62768-23.895223 32.072463-40.409338 2.905166-7.302313 2.785439-15.777335 3.582595-23.757077 1.430582-14.703887 2.187829-29.445636 3.699252-44.169989 1.789763-17.289782 4.019547-34.56012 6.008854-51.851948 0.118704-0.775666 0.158612-1.591241 0.23843-2.38635 1.233084-17.46886 2.427282-34.878368 3.818979-52.287877 0.956791-12.057617 1.86958-24.095791 3.422959-36.053124 2.467191-19.259646-17.827017-39.294958-37.923728-39.137369-110.186542 1.036609-220.334197 0.735757-330.60158 0.716314-154.75562 0-309.509193-0.079818-464.346677-0.476861-13.727653-0.039909-25.626657 3.006474-33.266661 14.264888-9.231245 13.57211-10.385535 29.169343-6.723122 45.046962 0.356111 1.551332 1.193175 3.063779 1.193175 4.615111 1.353834 17.192567 2.308579 34.360576 3.939729 51.490721 1.472538 14.626115 3.820002 29.150924 5.691629 43.714617 0.118704 0.795109 0.197498 1.591241 0.278339 2.406816 1.233084 17.152658 1.033539 34.601052 4.178159 51.41295 2.984984 16.335037 0.397043 33.70566 11.340279 48.90585 10.903328 14.983249 23.87578 27.278273 39.037085 37.147038 23.12058 15.021112 49.383734 23.25975 74.891687 33.187867 20.093641 7.821129 39.912012 16.515139 59.927881 24.671912 16.832364 6.863315 33.784454 13.70821 50.816363 20.056801 7.918343 3.003404 15.040555-2.527566 16.871249-10.783601 2.387373-10.725272 5.968945-21.190625 8.755408-31.855522 2.585895-9.66922 4.774747-19.459191 7.361665-29.169343 2.785439-10.601452 5.967922-21.148669 8.874111-31.773657 2.466168-9.390881 4.774747-18.881023 7.321756-28.312836 4.019547-14.94334 8.196683-29.825282 12.216229-44.768623 2.545986-9.390881 4.814656-18.859533 7.242961-28.233018 2.943029-10.92277 6.127558-21.725814 9.032724-32.648584 2.545986-9.66922 4.694929-19.460214 7.321756-29.169343 2.824325-10.623965 5.967922-21.149693 8.794293-31.775704 2.625804-9.668197 4.973268-19.419282 7.401574-29.147854 3.422959-13.509688 6.685259-27.058262 10.346649-40.509622C439.666066-140.829054 442.173167-141.825754 444.838879-144.094424L444.838879-144.094424zM307.513234 523.557612c3.064802 17.150612 6.64535 38.380122 10.783601 59.530838 4.814656 25.128307 15.876596 47.810912 29.40675 69.25941 19.896142 31.438013 46.001707 56.3064 78.910211 73.777307 14.763239 7.897877 30.322609 14.304797 47.115064 16.832364 12.415774 1.889023 24.791639 5.152347 37.165458 5.272074 12.932544 0.099261 26.025747-2.069125 38.798655-4.716418 11.93789-2.487657 23.955598-5.889127 35.176151-10.623965 31.476899-13.289678 57.741076-33.366945 79.149665-60.386322 15.677051-19.777439 28.054963-41.166585 37.048801-64.364937 5.209652-13.311167 7.798617-27.735691 10.703783-41.84299 2.506077-12.792351 5.451152-25.865087 5.330402-38.779212-0.158612-17.806551-2.584871-35.69292-5.012154-53.442166-1.351787-10.406001-4.337795-20.593014-6.685259-30.859845-4.455475-19.637246-12.932544-37.603433-22.046109-55.45194-15.47853-30.361495-36.450167-56.06797-62.553685-77.773318-17.033955-14.207583-35.853579-25.071002-57.063647-32.133861-18.703991-6.207375-37.644365-10.465352-57.224306-9.153474-31.673373 2.149966-60.96142 12.377912-87.146802 30.54262-23.23826 16.095583-43.532469 35.455513-58.57507 59.452044-10.546194 16.73208-20.533662 33.882692-28.810163 51.79055-6.92369 15.300474-11.538801 31.835056-16.155958 48.049343-2.387373 8.117888-2.785439 16.832364-3.820002 25.328875C310.577013 495.563024 309.342906 507.30137 307.513234 523.557612L307.513234 523.557612zM307.513234 523.557612"  horiz-adv-x="1024" />

    
    <glyph glyph-name="mima" unicode="&#59089;" d="M780.8 457.420308 665.6 457.420308 665.6 500.310154c0 72.310154-19.849846 193.299692-153.6 193.299692-138.870154 0-153.6-135.049846-153.6-193.299692l0-42.889846L243.2 457.420308 243.2 500.310154C243.2 689.750154 348.790154 812 512 812s268.8-122.249846 268.8-311.689846L780.8 457.420308zM588.8 142.579692C588.8 186.099692 554.220308 221.230769 512 221.230769s-76.8-35.131077-76.8-78.651077c0-29.459692 15.399385-54.468923 38.439385-67.820308l0-89.639385c0-21.740308 17.250462-39.699692 38.4-39.699692s38.4 17.959385 38.4 39.699692l0 89.639385C573.44 88.110769 588.8 113.12 588.8 142.579692zM896 300l0-393.609846c0-65.260308-51.869538-118.390154-115.2-118.390154L243.2-212c-63.291077 0-115.2 53.129846-115.2 118.390154L128 300c0 65.220923 51.869538 118.390154 115.2 118.390154l537.6 0C844.130462 418.390154 896 365.220923 896 300z"  horiz-adv-x="1024" />

    
    <glyph glyph-name="geren" unicode="&#59121;" d="M993.499755-30.686265M721.202354 109.0502M745.058264-2.122095M0-77.909231l1.26086 0c0 0-0.01089 0.475545-0.033881 1.596041C0.813146-76.846817 0.413833-77.380444 0-77.909231L0-77.909231zM1004.432454 302.5753c-119.977745 0-217.239436-96.381993-217.239436-215.292484 0-118.900811 97.261691-215.282804 217.239436-215.282804 119.972905 0 217.234596 96.381993 217.234596 215.282804C1221.66705 206.192097 1124.405359 302.5753 1004.432454 302.5753zM1001.685666-52.453649c-11.319911-11.083953-29.678616-11.083953-40.999737 0l-92.19889 90.3197c-11.29692 11.082743-11.29692 29.059076 0 40.13819 11.319911 11.085163 29.670146 11.085163 40.965856 0l71.722617-70.237899L1119.518013 143.222899c11.29208 11.083953 29.678616 11.083953 40.965856 0 11.319911-11.079113 11.319911-29.036086 0-40.129719L1001.685666-52.453649zM808.724444 240.78347l-3.595025 0.767164-1.841679 36.630288 0 83.253074c0 0 52.918617 35.334337 59.817047 87.696336 2.630624 0.180296 5.412503 0.424724 8.737689 0.820406 38.052083 4.872825 65.795848 103.18967 65.795848 103.18967s1.833208 45.883453-21.209556 45.883453c-2.589483 0-28.393555-0.377532-30.489342-1.161637l5.890468 81.439227 0.644951 17.457227c0 0 0.452554 169.387251-197.068093 171.227719-204.935764-1.840469-166.573911-92.924913-166.573911-92.924913 0-0.222647 0.073812-0.401733 0.073812-0.580819-25.563275-15.392901-38.429615-38.999543-38.429615-87.19659 0-77.125439 6.795577-93.715068 10.397862-97.095916l-26.65594 8.834492c0 0-33.049784-3.44982-30.254595-43.966752 2.793979-40.521772 35.394838-100.232336 73.442082-105.106371 2.882312-0.353331 5.366521-0.563878 7.697055-0.744174 0.111324-63.821065 53.459504-89.410961 53.459504-89.410961l0.475545-79.499535-71.394696-38.646212-211.002897-69.886988c0 0-76.335284-23.665935-75.89967-122.804395l1.435106-121.824264 584.216306 0c-33.544689 42.832946-53.545417 96.769205-53.545417 155.368954C752.843653 142.446055 773.77853 197.4895 808.724444 240.78347L808.724444 240.78347z"  horiz-adv-x="1222" />

    
    <glyph glyph-name="zixun" unicode="&#58894;" d="M841.752748 830.438818 180.536284 830.438818c-64.080457 0-116.028597-51.948139-116.028597-116.028597l0-450.41641c0-64.081481 51.948139-116.028597 116.028597-116.028597l61.099566 0 0-212.213239 237.422388 212.213239 362.695532 0c64.080457 0 116.02962 51.947116 116.02962 116.028597L957.783391 714.410222C957.782368 778.490679 905.833205 830.438818 841.752748 830.438818zM194.053136 489.20304c0 42.72508 34.635845 77.360925 77.360925 77.360925s77.360925-34.635845 77.360925-77.360925-34.635845-77.360925-77.360925-77.360925S194.053136 446.47796 194.053136 489.20304zM510.298753 411.841092c-42.72508 0-77.360925 34.635845-77.360925 77.360925s34.635845 77.360925 77.360925 77.360925 77.360925-34.635845 77.360925-77.360925S553.023834 411.841092 510.298753 411.841092zM749.183446 411.841092c-42.72508 0-77.360925 34.635845-77.360925 77.360925s34.635845 77.360925 77.360925 77.360925 77.360925-34.635845 77.360925-77.360925S791.908526 411.841092 749.183446 411.841092z"  horiz-adv-x="1024" />

    
    <glyph glyph-name="yanjing" unicode="&#59614;" d="M510.714216 497.172549c-61.759599 0-111.937418-50.170656-111.937418-111.929232 0-61.759599 50.177819-111.87909 111.937418-111.87909 61.759599 0 111.930255 50.120514 111.930255 111.87909C622.644471 447.000869 572.473815 497.172549 510.714216 497.172549L510.714216 497.172549zM510.714216 497.172549M946.86369 419.350113c-98.087992 127.565351-218.727607 245.61907-435.876252 245.721401l-0.062422 0c0 0.059352-0.159636 0.059352-0.220011 0l-0.273223 0c-217.138412-0.110517-337.790306-118.164237-435.869089-245.721401-15.440667-20.113083-15.440667-48.095391 0-68.207451 98.078783-127.566374 218.730677-245.61907 435.877275-245.730611l1.153266 0c0.24764 0.060375 0.487094 0.060375 0.734734 0 216.277812 0.588401 336.645227 118.437459 434.543907 245.730611C962.295148 371.254721 962.295148 399.238053 946.86369 419.350113L946.86369 419.350113zM510.875898 217.343329l-0.330528 0c-92.479251 0.110517-167.739329 75.422783-167.739329 167.899988 0 92.475158 75.260078 167.787424 167.739329 167.898965l0.330528 0c92.476181-0.110517 167.729096-75.423807 167.729096-167.898965C678.604994 292.766113 603.352079 217.453846 510.875898 217.343329L510.875898 217.343329zM510.875898 217.343329"  horiz-adv-x="1024" />

    
    <glyph glyph-name="gengduo" unicode="&#58882;" d="M863.976448 273.410048C803.309568 273.410048 754.128896 322.694144 754.128896 383.489024 754.128896 444.28288 803.309568 493.566976 863.976448 493.566976 924.644352 493.566976 973.824 444.28288 973.824 383.489024 973.824 322.694144 924.644352 273.410048 863.976448 273.410048ZM511.488 273.410048C450.82112 273.410048 401.640448 322.694144 401.640448 383.489024 401.640448 444.28288 450.82112 493.566976 511.488 493.566976 572.15488 493.566976 621.335552 444.28288 621.335552 383.489024 621.335552 322.694144 572.15488 273.410048 511.488 273.410048ZM158.999552 273.410048C98.332672 273.410048 49.152 322.694144 49.152 383.489024 49.152 444.28288 98.332672 493.566976 158.999552 493.566976 219.666432 493.566976 268.847104 444.28288 268.847104 383.489024 268.847104 322.694144 219.666432 273.410048 158.999552 273.410048Z"  horiz-adv-x="1024" />

    
    <glyph glyph-name="anli" unicode="&#58891;" d="M377.213689 789.247674c-25.482371-0.12689-48.936549-6.084579-67.826781-17.368576-9.508561-5.704932-17.876136-12.80463-24.215518-21.806655-6.338359-8.874111-10.522658-20.031219-10.522658-31.821753l0-281.959743c-116.003014-1.01512-209.821773-95.211479-209.821773-211.597209 0-116.892267 94.704942-211.724099 211.724099-211.724099 42.72508 0 82.533738 12.805654 115.877147 34.611286l468.201471-34.611286 0 86.971817 95.719038 4.183276L956.348716 804.589081 377.213689 789.247674 377.213689 789.247674zM344.75851 194.647421l23.454178-104.08866-91.661629 54.515614-91.663676-54.515614 23.455201 104.08866-80.125899 70.362534 106.242719 9.889231 42.218544 97.875145 42.216497-97.875145 106.242719-9.889231L344.75851 194.647421 344.75851 194.647421zM663.611511 336.894146l-200.059432 14.833847 4.563946 55.910381 200.060455-14.832823L663.611511 336.894146 663.611511 336.894146zM752.612545 470.394672l-346.618369 26.370601 4.689812 55.910381 346.618369-26.370601L752.612545 470.394672 752.612545 470.394672zM903.988184 151.667537l-43.35953-1.901303L860.628654 661.453103 378.862235 697.078485l-1.140986 0c-16.73515 0-31.442106 4.310166-40.316218 9.635451-4.438079 2.662643-7.226588 5.451152-8.621355 7.479345-1.394766 2.155083-1.521656 3.170203-1.648546 4.057409 0 1.014096 0.12689 2.028193 1.648546 4.056386 2.028193 3.043313 7.606235 7.734148 16.35448 11.283997 8.621355 3.549849 20.159132 5.831822 32.583093 5.831822l0.25378 0 526.140045 13.945617 0-601.701998L903.988184 151.666514z"  horiz-adv-x="1024" />

    
    <glyph glyph-name="renwu" unicode="&#58947;" d="M854 829.5h-639c-76.5 0-139.5-63-139.5-139.5v-607.5c0-76.5 63-139.5 139.5-139.5h639c76.5 0 139.5 63 139.5 139.5v607.5c0 76.5-58.5 139.5-139.5 139.5zM926 78c0-40.5-31.5-72-72-72h-639c-40.5 0-72 31.5-72 72v612c0 40.5 31.5 72 72 72h639c40.5 0 72-31.5 72-72 0 0 0-612 0-612zM413 609l-99-99-45 45c-13.5 13.5-36 13.5-45 0-13.5-13.5-13.5-36 0-45l72-72c4.5-4.5 13.5-9 27-9s13.5 4.5 27 9l121.5 121.5c13.5 13.5 13.5 36 0 45-27 13.5-45 13.5-58.5 4.5zM827 555h-310.5c-22.5 0-31.5-13.5-31.5-31.5 0-22.5 13.5-31.5 31.5-31.5h310.5c22.5 0 31.5 13.5 31.5 31.5s-13.5 31.5-31.5 31.5zM332 352.5c-58.5 0-103.5-45-103.5-103.5s45-103.5 103.5-103.5 103.5 45 103.5 103.5c0 63-49.5 103.5-103.5 103.5zM332 217.5c-22.5 0-36 13.5-36 36s13.5 36 36 36c22.5 0 36-13.5 36-36 0-22.5-18-36-36-36zM827 285h-310.5c-22.5 0-31.5-13.5-31.5-31.5s13.5-31.5 31.5-31.5h310.5c22.5 0 31.5 13.5 31.5 31.5s-13.5 31.5-31.5 31.5z"  horiz-adv-x="1076" />

    
    <glyph glyph-name="touxiang" unicode="&#58934;" d="M938.561096-60.671569c-13.127995 61.795415-38.123272 166.30056-38.123272 166.30056s-13.354146 64.803935-34.505885 86.895069c-36.536125 38.151925-263.491113 70.272483-272.418436 138.672316-2.426259 18.584264-3.162016 51.139727-2.474354 59.066257 18.603707 16.780175 33.625842 38.440497 37.241182 44.641733 4.514827 7.780197 13.766538 29.572526 20.836561 56.637951 11.753695 1.390673 22.409382 23.159466 30.249955 47.145763 8.403391 25.814945 2.038426 48.418756-9.892301 52.582589 8.163937 34.235732 15.029298 90.057085-4.981455 134.071532-9.070586 19.962657 11.824303 60.148915-26.062586 103.957677-32.476669-48.750307-128.373763 29.17446-202.303542-8.133238-30.446429-15.364943-43.132356-38.150902-47.702442-60.405765-24.356734-19.6045-30.315446-44.503587-33.545-59.777455-8.388041-39.743166-9.673313-74.665537 1.211595-110.946858-10.018168-6.540973-14.688537-27.675316-6.982018-51.348482 7.823176-23.986297 18.494213-45.744857 30.232558-47.145763 7.070023-27.065426 16.33913-48.858778 20.853957-56.637951 3.844561-6.625908 20.707624-30.918173 41.085744-48.024783l0.858554 0c-0.032746-13.368472-0.896416-41.74373-2.712785-55.68423-8.927323-68.400856-237.098-99.301633-272.418436-138.672316-19.059078-21.239743-70.035076-209.16788-80.750115-253.195629L938.561096-60.672592z"  horiz-adv-x="1024" />

    
    <glyph glyph-name="rencaiwang" unicode="&#58936;" d="M886.454344 73.868637c-0.828878 10.120498-2.851954 19.903306-5.925966 29.208229-33.863249 138.26504-144.555304 246.420319-284.288788 276.628318-1.173732-0.450255-2.355651-0.881067-3.538593-1.311879l0 0c1.181919 0.431835 2.363837 0.861624 3.538593 1.311879 87.588871 33.623795 149.821237 118.54593 149.821237 217.956034 0 128.764666-104.534821 233.299487-233.345536 233.299487-128.847553 0-233.475496-104.534821-233.475496-233.299487 0-100.522438 63.684438-186.242751 152.865573-219.075531 1.562589-0.575098 3.133364-1.133823 4.713348-1.677199-1.578961 0.543376-3.149736 1.101077-4.713348 1.677199-0.268106-0.062422-0.535189-0.12996-0.804319-0.192382-1.181919 0.431835-2.363837 0.861624-3.538593 1.311879-139.733485-30.206976-250.424516-138.363278-284.288788-276.629341-3.074012-9.3039-5.097088-19.087731-5.925966-29.208229-0.282433-3.450589-0.434905-6.939039-0.434905-10.462283 0-69.790506 56.57553-126.365013 126.365013-126.365013l247.901043 0 1.24127 0 247.901043 0c69.790506 0 126.365013 56.57553 126.365013 126.365013C886.889249 66.929598 886.7378 70.417025 886.454344 73.868637L886.454344 73.868637zM441.569928 375.331573c-0.86981 0.278339-1.729387 0.572028-2.594081 0.859577C439.84054 375.903601 440.701141 375.610936 441.569928 375.331573L441.569928 375.331573zM465.894939 368.984005c-0.063445 0.01228-0.125867 0.027629-0.190335 0.040932C465.768049 369.012657 465.831494 368.997308 465.894939 368.984005L465.894939 368.984005zM460.954417 370.048243c-0.160659 0.036839-0.320295 0.076748-0.479931 0.113587C460.636169 370.123968 460.793758 370.085082 460.954417 370.048243L460.954417 370.048243zM456.054827 371.213789c-0.302899 0.075725-0.601704 0.158612-0.903579 0.234337C455.454146 371.372402 455.753975 371.289514 456.054827 371.213789L456.054827 371.213789zM451.187983 372.483712c-0.426719 0.116657-0.849344 0.242524-1.27504 0.361227C450.338638 372.727259 450.761264 372.600369 451.187983 372.483712L451.187983 372.483712zM446.360024 373.858012c-0.593518 0.176009-1.182942 0.366344-1.774413 0.546446C445.177082 374.222309 445.765483 374.032998 446.360024 373.858012L446.360024 373.858012zM512.62217-43.019537l0 1.237177-0.620124-0.6191-0.620124-0.618077-109.260449 100.492762 81.971943 192.794981c-25.882484 26.843368-43.167149 73.197092-43.167149 73.197092l-0.220011 2.837628c25.797549 21.303188 50.031487 27.718295 70.674643 27.042913l0-0.044002c0.205685 0.00921 0.414439 0.013303 0.620124 0.021489 0.205685-0.008186 0.415462-0.01228 0.620124-0.021489l0 0.044002c20.643156 0.675382 44.87607-5.739724 70.674643-27.042913l-0.220011-2.837628c0 0-17.283642-46.354747-43.167149-73.197092l81.971943-192.794981L512.62217-43.019537 512.62217-43.019537z"  horiz-adv-x="1024" />

    
    <glyph glyph-name="xiangji" unicode="&#58901;" d="M512 313.904762m-195.047619 0a8 8 0 1 0 390.095238 0 8 8 0 1 0-390.095238 0ZM902.095238 679.619048l-148.358095 0L707.291429 771.267048C692.857905 799.695238 649.898667 819.809524 609.52381 819.809524l-195.047619 0c-40.399238 0-83.334095-20.114286-97.743238-48.542476l-46.445714-91.648L121.904762 679.619048c-67.31581 0-121.904762-54.588952-121.904762-121.904762l0-487.619048c0-67.34019 54.588952-121.904762 121.904762-121.904762l780.190476 0c67.34019 0 121.904762 54.564571 121.904762 121.904762l0 487.619048C1024 625.030095 969.435429 679.619048 902.095238 679.619048zM180.833524 474.916571c-26.916571 0-48.761905 21.845333-48.761905 48.761905s21.845333 48.761905 48.761905 48.761905 48.761905-21.845333 48.761905-48.761905S207.750095 474.916571 180.833524 474.916571zM512 70.095238c-134.631619 0-243.809524 109.153524-243.809524 243.809524 0 134.631619 109.177905 243.809524 243.809524 243.809524s243.809524-109.177905 243.809524-243.809524C755.809524 179.248762 646.631619 70.095238 512 70.095238z"  horiz-adv-x="1024" />

    
    <glyph glyph-name="tijiao" unicode="&#58929;" d="M1008.768 876.864c-9.152 6.848-21.376 8-31.488 2.624L19.264 382.656c-10.368-5.376-16.64-16.384-16-28.032C4.032 342.784 11.392 332.608 22.4 328.384l242.368-93.504c15.232-5.888 32.512 1.792 38.4 17.152C309.12 267.328 301.504 284.544 286.144 290.432l-180.608 69.76 775.616 402.24-487.616-545.152c-4.864-5.504-7.488-12.608-7.488-20.032l0-250.368c0-16.448 13.376-29.824 29.888-29.824 16.384 0 29.76 13.376 29.76 29.824l0 239.04 492.48 550.784-124.864-643.008-241.856 86.144c-15.488 5.44-32.512-2.56-38.144-18.048-5.504-15.552 2.624-32.64 18.112-38.144l274.624-97.664c3.264-1.152 6.656-1.728 9.984-1.728 5.12 0 10.24 1.344 14.72 3.968 7.488 4.288 12.864 11.776 14.528 20.16l155.008 799.04C1022.4 858.624 1017.984 870.016 1008.768 876.864L1008.768 876.864z"  horiz-adv-x="1024" />

    
    <glyph glyph-name="shouji" unicode="&#59125;" d="M763.066641-31.121556H291.973306c-32.520671 0-58.886155 26.363438-58.886155 58.886156v745.898121c0 32.520671 26.365484 58.886155 58.886155 58.886155h471.093335c32.522718 0 58.886155-26.365484 58.886155-58.886155v-745.897098c0-32.523741-26.363438-58.887178-58.886155-58.887179z m-235.544621 58.885132c21.679765 0 39.258119 17.575284 39.258119 39.256073 0 21.681812-17.577331 39.260166-39.258119 39.260165-21.681812 0-39.258119-17.577331-39.258119-39.260165 0-21.680788 17.576307-39.256072 39.258119-39.256073z m78.515215 765.526158H449.006805v-39.258119h157.031453v39.258119h-0.001023z m176.658465-78.516238H272.344247v-569.237609h510.35043l0.001023 569.237609z"  horiz-adv-x="1024" />

    
    <glyph glyph-name="rili" unicode="&#58885;" d="M381.952 294.4h-131.584v131.584h131.584v-131.584z m199.168 132.096h-131.584v-131.584h131.584v131.584z m198.656 0h-131.584v-131.584h131.584v131.584z m-397.824-192.512h-131.584V102.4h131.584v131.584z m199.168 0h-131.584V102.4h131.584v131.584z m198.656 0h-131.584V102.4h131.584v131.584z m49.152 458.24c0-22.528-18.432-40.96-40.96-40.96s-40.96 18.432-40.96 40.96v102.4c0 22.528 18.432 40.96 40.96 40.96s40.96-18.432 40.96-40.96v-102.4z m-548.864 102.4c0 22.528-18.432 40.96-40.96 40.96s-40.96-18.432-40.96-40.96v-102.4c0-22.528 18.432-40.96 40.96-40.96s40.96 18.432 40.96 40.96v102.4z m598.016-58.88v-41.984c0-49.664-40.448-90.112-90.112-90.112s-90.112 40.448-90.112 90.112v41.984h-369.664v-41.472c0-49.664-40.448-90.112-90.112-90.112s-90.112 40.448-90.112 90.112v41.472h-97.28v-803.328h921.6V735.744h-94.208z m6.144-713.728h-742.912v497.152h742.912v-497.152z"  horiz-adv-x="1024" />

    
    <glyph glyph-name="dianhua" unicode="&#58938;" d="M616.277 102.646c-3.71 0-7.547 0.128-11.832 0.448-32.49 2.238-63.957 11.64-127.722 52.765-58.841 37.926-109.304 93.185-128.235 115.25-28.333 31.851-71.568 90.308-98.814 149.021-23.28 50.335-34.281 95.744-31.787 131.624 2.559 36.008 14.519 50.27 26.99 60.376 8.954 7.291 51.358 33.961 56.539 36.967 2.942 1.727 18.547 10.17 37.479 10.17 19.187 0 35.496-9.082 44.898-24.816 6.395-10.745 15.989-27.566 25.774-44.77l19.955-34.92c20.786-32.3 18.867-62.487-6.716-88.518l-9.017-10.105c-6.396-7.163-6.396-7.163-6.844-12.663 0.96-0.64 8.315-16.95 51.805-69.138 8.635-10.233 22.897-25.2 37.863-39.014 15.798-14.71 25.455-21.938 29.612-24.432 0.448 0.448 2.495 1.023 5.437 2.303 7.227 3.07 13.367 7.483 14.454 8.442 39.014 26.094 68.626 8.762 81.738-0.768 15.158-10.105 65.236-46.305 80.714-58.52 23.984-19.827 24.687-37.416 23.536-52.446-1.087-15.989-10.233-29.1-51.55-75.789l-8.314-9.402c-11.576-14.838-30.316-22.065-55.963-22.065zM335.505 598.955a31.083 31.083 0 0 1-4.477-1.6c-5.948-3.389-43.171-27.245-48.736-31.658-1.535-1.28-3.837-3.07-4.924-18.228-0.832-11.832 0-45.537 26.35-102.332 24.56-52.828 63.574-105.657 89.54-134.822 13.815-16.053 61.975-69.841 115.763-104.506 58.52-37.735 80.458-42.02 99.581-43.363l7.675-0.256a38.183 38.183 0 0 1 11.193 1.152c0.32 0.767 3.837 4.924 8.506 10.105 7.036 7.867 25.839 29.036 34.537 40.805a919.77 919.77 0 0 1-71.632 54.043l-6.14 4.35c-1.919 1.343-4.669 3.453-6.012 3.965 0-0.256-1.919-0.832-5.117-2.942-1.918-1.919-13.047-9.658-26.286-15.35-10.873-4.669-21.298-7.1-30.827-7.1l-11.96 1.28c-9.466 2.11-23.537 8.378-56.347 38.95a562.377 562.377 0 0 0-40.101 40.997c-52.893 63.445-70.033 92.61-68.434 114.93 1.79 26.223 12.152 37.608 22.129 48.608l10.553 11.705c1.407 1.407 3.454 3.453 4.03 4.477-0.193 0-0.64 3.71-5.565 11.32l-20.978 36.648a4163.429 4163.429 0 0 1-22.321 38.886z m96.192-719.008a508.077 508.077 0 0 0-333.73 204.407 506.734 506.734 0 0 0-91.459 380.29 507.501 507.501 0 0 0 204.664 333.41A507.437 507.437 0 0 0 591.718 889.449 507.949 507.949 0 0 0 925.51 685.04a508.333 508.333 0 0 0 91.523-380.226A512.298 512.298 0 0 0 977.38 173l-58.2 26.478a445.335 445.335 0 0 1 34.728 115.251 444.76 444.76 0 0 1-80.202 332.706A444.695 444.695 0 0 1 581.74 826.195a444.887 444.887 0 0 1-333.025-79.947A443.992 443.992 0 0 1 69.698 454.603a443.864 443.864 0 0 1 80.01-332.706 444.184 444.184 0 0 1 292.03-178.824c68.562-11.001 132.711-8.443 185.796 7.483 23.856 7.163 48.863 25.902 58.968 36.008 19.507 19.57 45.474 57.689 42.084 81.417-2.558 17.844-16.245 25.135-34.473 38.055-28.205 17.844-26.798 15.925-31.403 19.763l31.403 51.805c5.693-2.558 28.781-14.262 32.619-16.629 20.274-11.96 58.073-34.537 65.172-83.912 8.954-62.87-48.543-124.077-60.12-135.717-14.006-13.943-47.776-40.613-85.894-52.062a438.491 438.491 0 0 0-123.566-16.692c-29.228 0-59.608 2.43-90.627 7.355z"  horiz-adv-x="1024" />

    
    <glyph glyph-name="chazhao" unicode="&#58910;" d="M932.3-29.234l-30.556-30.537c-8.42-8.442-22.096-8.442-30.536 0l-66.054 66.042c-57.27-30.836-129.947-22.768-178.305 25.579-59.023 59.043-59.023 154.769 0 213.812 59.065 59.033 154.778 59.033 213.82 0 48.34-48.349 56.415-121.036 25.557-178.296l66.075-66.054c8.42-8.44 8.42-22.117 0-30.546z m-137.446 229.08c-33.742 33.732-88.425 33.732-122.19 0-33.72-33.743-33.72-88.437 0-122.179 33.765-33.731 88.45-33.731 122.19 0 33.72 33.742 33.72 88.436 0 122.18z m-515.15 64.74h277.543c-18.783-26.637-30.6-56.608-35.493-87.53h-242.05c-12.075 0-21.882 9.799-21.882 21.883v43.765c0 12.083 9.807 21.881 21.883 21.881z m393.88 262.587H432.878v87.53h240.704c12.073 0 21.882-9.798 21.882-21.883v-43.765c0-12.083-9.81-21.882-21.882-21.882z m21.881-153.176c0-12.084-9.81-21.882-21.882-21.882H279.705c-12.076 0-21.883 9.798-21.883 21.882v43.765c0 12.085 9.807 21.882 21.883 21.882h393.878c12.073 0 21.882-9.797 21.882-21.882v-43.765z m87.53 372H345.35v-175.06H170.294v-525.176h373.279c9.508-17.8 21.689-34.543 36.691-49.544a209.34 209.34 0 0 1 52.012-37.985H126.53c-24.173 0-43.765 19.596-43.765 43.766V611.872l216.19 221.655H826.76c24.167 0 43.764-19.596 43.764-43.765v-492.289c-25.664 23.827-55.73 40.078-87.528 48.658V745.997z"  horiz-adv-x="1024" />

    
    <glyph glyph-name="dianhua1" unicode="&#59012;" d="M612.57 876.986a45.57 45.57 0 0 1-7.57 0.934c-22.649 0.867-42.47-14.62-47.033-36.866-2.514-12.072-0.173-24.412 6.636-34.749 6.785-10.325 17.183-17.38 29.267-19.844 97.276-20.08 181.025-76.94 235.798-160.106 54.755-83.2 73.843-182.582 53.825-279.853-2.514-12.112-0.174-24.425 6.635-34.739 6.787-10.324 17.19-17.368 29.274-19.865a51.61 51.61 0 0 1 7.587-0.93c9.692-0.369 19.066 2.267 27.173 7.592 10.32 6.798 17.374 17.207 19.866 29.28 51.699 251.039-110.43 497.408-361.457 549.146z m79.578-694.31c2.732-1.785 63.732-40.946 110.597-89.083 17.65-18.21 47.209-48.675 46.43-84.018-0.66-24.144-14.284-48.356-41.67-73.917-6.808-6.685-67.807-63.658-165.397-63.658-26.732 0-54.19 4.244-81.626 12.598-28.827 8.736-58.144 22.236-87.048 40.053-114.113 67.398-202.185 154.176-285.811 281.46C43.878 424.868 39.751 612.226 40.413 647.536 40.652 810.494 176.374 874.595 191.845 881.38 213.134 891.253 231.736 896 248.869 896c8.203 0 16.064-1.108 23.332-3.331 14.967-4.541 35.74-16.305 49.7-46.548 19.042-41.037 37.056-99.863 49.358-161.45 12.939-63.915-22.897-81.856-57.557-99.197l-1.371-0.6s-61.318-25.582-72.101-30.022c-10.595-4.418-16.116-16.356-12.498-27.268 24.726-74.914 62.488-152.598 109.157-224.65 45.914-70.905 100.519-136.332 157.879-189.302 4.104-3.734 9.373-5.834 14.945-5.834l1.875 0.1c6.03 0.487 11.72 3.54 15.505 8.394 9.321 11.988 23.623 29.256 38.712 43.625 28.607 27.2 54.482 40.41 79.085 40.41 6.737 0 13.427-0.991 19.873-2.958 6.17-1.892 16.153-7.261 27.385-14.692zM498.043 498.015c-12.11 2.514-22.509 9.54-29.296 19.854-6.836 10.325-9.177 22.678-6.686 34.783 4.638 22.224 24.409 37.728 47.035 36.82 2.514-0.071 5.056-0.374 7.593-0.9 107.283-22.117 176.579-127.447 154.49-234.774-2.47-12.032-9.497-22.419-19.821-29.267-8.13-5.308-17.548-7.934-27.168-7.592-2.491 0.133-5.029 0.419-7.57 0.952-12.128 2.457-22.555 9.535-29.34 19.871-6.782 10.292-9.127 22.604-6.636 34.71 5.71 27.779 0.291 56.145-15.38 79.891-15.623 23.702-39.471 39.934-67.22 45.652zM546.08 642.81c-24.952 5.174-41.06 29.643-35.937 54.577 4.592 22.274 24.362 37.79 47.017 36.91 2.487-0.113 5.052-0.404 7.587-0.941 86.828-17.906 161.524-68.625 210.44-142.894 48.842-74.22 65.902-162.906 47.99-249.734-2.49-12.106-9.546-22.532-19.871-29.28-8.125-5.358-17.476-7.984-27.14-7.602a46.904 46.904 0 0 0-7.62 0.951c-24.895 5.112-41.032 29.598-35.903 54.577 12.912 62.65 0.61 126.701-34.688 180.314-35.298 53.591-89.192 90.215-151.875 103.122z m0 0"  horiz-adv-x="1024" />

    
    <glyph glyph-name="yanzhengma" unicode="&#59015;" d="M956.461791 735.131149c-2.503007 0.245593-252.410754 25.697265-426.470021 151.22419-11.270694 8.129144-26.53126 8.129144-37.818328 0C318.082452 760.828414 68.206428 735.36037 65.719794 735.131149c-16.488533-1.587148-29.083385-15.343453-29.083385-31.79924 0-6.854105 0.63752-170.214706 56.66251-353.59834 33.205263-108.727307 79.137385-201.75198 136.502907-276.489149 72.856331-94.938256 164.195619-160.368454 271.467785-194.489576a32.43676 32.43676 0 0 1 9.81453-1.521656c3.320629 0 6.624884 0.506537 9.798157 1.521656 107.272165 34.104749 198.611453 99.534947 271.467785 194.473203C849.713558 147.982612 895.629307 240.990912 928.850943 349.718219c56.023968 183.382611 56.67786 346.744235 56.67786 353.614713 0 16.438391-12.57848 30.195719-29.067012 31.798217zM719.459982 502.283963L519.490601 241.890398c-5.365194-6.985088-13.380752-11.466146-22.180161-12.399401a34.157961 34.157961 0 0 0-3.418866-0.180102c-7.622608 0-15.065114 2.699482-20.905123 7.671727l-116.349915 98.782817c-13.510712 11.466146-15.081487 31.619138-3.549849 45.031613 11.54801 13.413498 31.848359 14.983249 45.359071 3.517103l90.48892-76.81448 179.342598 233.534848c10.763135 14.034645 30.964222 16.734126 45.097104 6.03546 14.132882-10.697643 16.848737-30.751375 6.085602-44.78602z"  horiz-adv-x="1024" />

    
    <glyph glyph-name="ccgl-dizhichaxun-4" unicode="&#59220;" d="M511.385 834c-208.7 0-378.207-159.667-378.207-357.206 0-75.483 24.955-145.607 67.311-203.339 2.109-3.339 3.866-6.591 6.415-9.49l257.646-306.239c12.83-15.993 29.876-23.726 46.925-23.726s33.919 7.644 46.837 23.726l257.558 306.327c2.372 2.988 4.306 6.152 6.152 9.139 42.532 57.82 67.575 127.856 67.575 203.603-0.175 197.54-169.419 357.206-378.207 357.206zM511.385 333.912c-83.567 0-151.318 64.060-151.318 142.882 0 78.91 67.75 142.882 151.318 142.882 83.48 0 151.318-64.060 151.318-142.882-0.088-78.822-67.838-142.882-151.318-142.882z"  horiz-adv-x="1024" />

    
    <glyph glyph-name="fanhui" unicode="&#58896;" d="M778.24 844.8L742.4 880.64 245.76 384 742.4-112.64l35.84 35.84-460.8 460.8z"  horiz-adv-x="1024" />

    
    <glyph glyph-name="shichangtuozhan" unicode="&#58971;" d="M476.049 394.689h159.799v-64.136h-159.799v64.136zM675.801 287.796h-239.703v43.355h-279.652v-281.793c0-33.616 26.128-60.865 58.751-60.865h681.503c32.444 0 58.751 27.464 58.751 60.865v281.793h-279.652v-43.355zM937.056 672.612h-221.307c0 59.035-71.543 106.896-159.803 106.896-88.255 0-159.796-47.861-159.796-106.896h-221.307c-32.222 0-58.352-27.088-58.352-60.568v-178.165c0-33.451 26.308-60.569 58.352-60.569h261.254v64.136h239.703v-64.136h261.254c32.222 0 58.343 27.088 58.343 60.569v178.165c0.001 33.452-26.299 60.568-58.343 60.568zM436.097 672.612c0 35.42 53.659 64.136 119.848 64.136 66.197 0 119.856-28.716 119.856-64.136h-239.703z"  horiz-adv-x="1138" />

    
    <glyph glyph-name="touxiang1" unicode="&#59040;" d="M513.606591 20.273998c-66.529229 0.499373-133.11167-1.816369-199.543686 3.665483-28.115338 2.319835-56.004525 5.804193-81.920777 18.189268-22.423709 10.716063-33.387411 28.030403-33.802874 53.252854-2.197038 133.703141 92.51916 239.45672 225.25016 249.855558 64.485687 5.052063 129.107473 4.497431 193.606463-0.430812 123.379005-9.42772 227.822752-136.367831 213.351156-258.932284-2.390443-20.240997-14.136975-33.721009-31.849382-42.650379-27.514657-13.870916-57.469899-16.809851-87.465051-19.331277-65.790402-5.53097-131.738393-3.041266-197.626009-3.618411zM700.505281 552.773891c0.084934-107.489106-84.704171-191.146435-193.599299-191.013405-107.150392 0.130983-193.156208 84.776825-193.148022 190.096523 0.008186 105.669668 88.058568 192.876845 194.189747 192.3304 105.897865-0.546446 192.474686-86.60752 192.557574-191.413518z"  horiz-adv-x="1024" />

    
    <glyph glyph-name="shaixuan" unicode="&#59081;" d="M552.384 43.370667a25.386667 25.386667 0 0 0-25.386667 25.429333V449.770667c0 6.314667 2.304 12.373333 6.570667 16.981333l165.482667 186.133333h-446.08l165.824-186.218666c4.16-4.629333 6.4-10.666667 6.4-16.896v-229.141334l40.298666-32.64c10.901333-8.789333 12.586667-24.789333 3.712-35.733333a25.344 25.344 0 0 0-35.690666-3.733333l-49.706667 40.277333a25.386667 25.386667 0 0 0-9.386667 19.733333V440.085333L177.301333 661.418667a25.386667 25.386667 0 0 0 18.986667 42.304h559.808A25.408 25.408 0 0 0 774.954667 661.333333l-197.184-221.333333v-371.2a25.386667 25.386667 0 0 0-25.386667-25.429333z m274.858667 391.914666h-172.16a25.770667 25.770667 0 0 1 0-51.562666h172.16a25.770667 25.770667 0 0 1 0 51.562666z m0-134.570666h-172.16a25.770667 25.770667 0 0 1 0-51.562667h172.16a25.770667 25.770667 0 0 1 0 51.562667z m0-134.677334h-172.16a25.770667 25.770667 0 0 1 0-51.541333h172.16a25.770667 25.770667 0 0 1 0 51.541333z"  horiz-adv-x="1024" />

    
    <glyph glyph-name="renzheng" unicode="&#58892;" d="M819.135354 650.550303H545.053737c-11.381657 0-20.608-9.222465-20.608-20.605414 0-11.380364 9.227636-20.601535 20.608-20.601535H819.135354c11.380364 0 20.609293 9.221172 20.609292 20.601535-0.007758 11.382949-9.228929 20.605414-20.609292 20.605414m0-102.467232H545.053737c-11.381657 0-20.608-9.222465-20.608-20.605414 0-11.380364 9.227636-20.609293 20.608-20.609293H819.135354c11.380364 0 20.609293 9.228929 20.609292 20.609293-0.007758 11.382949-9.228929 20.605414-20.609292 20.605414m-179.580122-123.080404c0 11.384242-9.221172 20.604121-20.602828 20.604121H545.047273c-11.381657 0-20.602828-9.219879-20.602829-20.604121 0-11.379071 9.221172-20.601535 20.602829-20.601536h73.905131c11.381657 0 20.602828 9.228929 20.602828 20.601536m-369.031757-31.524202c-3.794747-4.165818-9.356929-8.535919-16.671031-13.04695-9.38796-5.889293-20.178747-10.426182-32.324525-13.547313a431.528081 431.528081 0 0 1-35.215515-10.683475c-11.310545-4.000323-21.205333-9.420283-29.710222-16.164202-8.535919-6.800808-13.670141-16.611556-15.42594-29.486545-3.461172-22.597818-4.248566-41.027232-2.325979-55.28695 1.896727-14.233859 4.588606-22.76202 8.082101-25.552161 2.068687-1.755798 7.118869-3.479273 15.111757-5.21697 7.996768-1.755798 17.750626-3.485737 29.202101-5.210505 11.510949-1.729939 24.277333-3.382303 38.33794-4.972606a1787.386828 1787.386828 0 0 1 42.52703-4.165818c14.233859-1.185616 28.072081-2.181172 41.457778-2.865132 13.374061-0.704646 25.117737-1.044687 35.216808-1.044686 10.084848 0 21.992727 0.34004 35.712 1.044686 13.72703 0.68396 28.079838 1.679515 43.050666 2.865132a1222.173737 1222.173737 0 0 1 44.56598 4.452848 677.999192 677.999192 0 0 1 23.633455 3.17802V363.576889a322.314343 322.314343 0 0 1-7.982546 2.254869c-10.26198 2.781091-19.730101 5.930667-28.435394 9.382787-9.724121 3.832242-17.268364 8.202343-22.656 13.049536-5.409616 4.880808-9.415111 10.002101-12.017777 15.366464-2.607838 5.417374-4.079192 10.798545-4.419233 16.182303-0.373657 5.395394 0 10.697697 1.040808 15.910788 1.38602 8.704 4.172283 14.862222 8.338101 18.513455 4.172283 3.655111 9.583192 8.082101 16.157738 13.300364 2.779798 2.439758 5.304889 5.842747 7.575272 10.149494a125.535677 125.535677 0 0 1 5.981091 13.326223 437.281616 437.281616 0 0 1 5.246707 16.668444c3.459879 1.048566 6.747798 2.947879 9.901253 5.758707 2.769455 2.41002 5.295838 5.807838 7.567515 10.179233 2.263919 4.306747 3.717172 10.150788 4.424404 17.462303 0.709818 5.55701 0.621899 10.241293-0.252121 14.060606-0.883071 3.833535-2.018263 6.979232-3.401697 9.416404-1.395071 2.779798-3.302141 5.021737-5.735434 6.754262 0 14.258424-0.848162 28.351354-2.601374 42.238707-1.762263 12.197495-4.68299 24.956121-8.851394 38.33794-4.190384 13.385697-10.799838 25.659475-19.852929 36.770909-3.789576 4.878222-9.094465 9.729293-15.899152 14.60105-6.773657 4.880808-14.522182 9.244444-23.186101 13.04695-8.710465 3.856808-18.018263 6.856404-27.938909 9.130667a133.476848 133.476848 0 0 1-29.963636 3.402989c-7.999354 0-16.280566-0.620606-24.785455-1.819151-8.502303-1.243798-17.038222-3.571071-25.544404-7.056808-8.535919-3.485737-16.872727-8.254061-25.045333-14.348929-8.163556-6.067717-15.559111-13.976566-22.16598-23.731718-7.319273-10.092606-12.762505-21.545374-16.446061-34.41907-3.62796-12.876283-6.151758-24.834586-7.541656-35.979637a252.134141 252.134141 0 0 1-2.103596-39.63604c-3.113374-3.48703-5.382465-7.120162-6.767192-10.973091-1.389899-3.459879-2.358303-7.633455-2.863838-12.503919-0.512-4.851071 0.256-10.24 2.351838-16.161616 1.723475-5.926788 3.825778-10.433939 6.266828-13.58093 2.434586-3.119838 4.679111-5.555717 6.741334-7.285656 2.442343-1.737697 4.883394-2.954343 7.319272-3.65899 1.763556-5.895758 3.484444-11.460525 5.21697-16.674909a201.001374 201.001374 0 0 1 5.721212-13.326222c2.103596-4.306747 4.539475-7.709737 7.319273-10.149495 5.897051-4.878222 11.28598-9.638788 16.164202-14.343758 4.876929-4.679111 7.651556-11.028687 8.336808-19.026747 0.365899-5.581576 0.539152-10.608485 0.539151-15.111758 0-4.535596-0.879192-8.87596-2.615596-13.068929-1.729939-4.169697-4.504566-8.335515-8.361373-12.506505M99.282747 163.196121c-26.723556 2.788848-47.731071 25.590949-47.73107 53.05794V731.919515c0 29.339152 23.968323 51.117253 53.263515 51.117253h779.611798c29.301657 0 55.500283-21.778101 55.500283-51.117253v-319.984485c13.124525-10.167596 40.508768-21.511758 51.550384-33.855353V765.379232c0 39.355475-50.364768 68.560162-89.663354 68.560162H71.436929C32.144808 833.939394 0 789.502707 0 750.153697v-551.457616c0-36.849778 28.179394-82.659556 64.02198-86.402586H508.16c-3.16897 11.607919-5.594505 38.734869-7.191273 50.903919l-401.68598-0.001293m559.520324 33.545051c-6.710303-0.090505-12.881455-2.845737-17.414465-7.709738-4.446384-4.763152-6.747798-10.940768-6.490505-17.398949a24.016162 24.016162 0 0 1 7.70198-16.848162l102.410343-95.272081a24.269576 24.269576 0 0 1 18.759111-6.396121c6.844768 0.69301 13.156848 4.235636 17.260606 9.836606l138.131394 187.901414c7.928242 10.793374 5.569939 25.954263-5.20404 33.846303-10.476606 7.65802-26.216727 5.228606-33.84501-5.20404l-122.002101-166.005657-82.491475 76.767677a24.159677 24.159677 0 0 1-16.815838 6.482748z m127.423353 219.887192c-134.101333 0-242.810828-108.710788-242.810828-242.812122 0-134.101333 108.708202-242.809535 242.810828-242.809535s242.804364 108.709495 242.804364 242.809535-108.704323 242.812121-242.804364 242.812122m0-440.043313c-108.928 0-197.240242 88.304485-197.240242 197.232484 0 108.926707 88.312242 197.238949 197.240242 197.23895s197.233778-88.312242 197.233778-197.23895c0-108.929293-88.305778-197.232485-197.233778-197.232484m0 0z"  horiz-adv-x="1029" />

    
    <glyph glyph-name="fabu" unicode="&#59020;" d="M865.745455 88.436364L449.163636 216.436364 865.745455 695.854545 321.163636 216.436364 0 344.436364 1024 889.018182l-158.254545-800.581818M449.163636-104.727273v223.418182l128-65.163636L449.163636-104.727273"  horiz-adv-x="1030" />

    
    <glyph glyph-name="kong" unicode="&#58962;" d="M728.924758 885.018767v-346.183378L1172.978377 714.397855zM208.414302 714.397855L728.924758 885.018767v-346.183378l-100.615549-39.806971L198.256662 697.926005zM1186.567654 707.946381l125.186059-86.477212-82.221984 3.431635zM628.309209 476.51689v-595.731903l566.906166 242.410723 8.784986 304.729223-480.291689-184.621984zM628.309209 487.498123l95.399463-244.195174 600.261663 237.7437-150.991958 233.351206-550.846112-217.840214zM200.178377 439.867024v-313.926005L628.309209-119.215013l-6.176944 584.75067-78.515818-230.605898zM198.256662 697.926005l-125.323325-177.484182 469.722252-277.276139 79.476676 253.391957zM1208.255589 425.591421l128.343164 51.474531-90.457909 139.598927 80.574799-14.001072 7.275067 13.17748-150.991957 105.831635-452.015014 174.327078L197.433069 712.338874 25.714034 585.917426l8.09866-14.001072L127.839503 612.272386l-68.769973-98.419303L194.687761 435.2v-314.886863l431.287935-248.313137 581.456301 248.313137 0.823592 305.278284z m85.92815 199.583914l-59.710455 10.294906-37.061663 56.278821 96.772118-66.573727zM739.082399 875.410188L1160.349959 712.338874 739.082399 549.26756V875.410188z m433.895978-174.327078L1313.126367 484.61555 730.983739 251.264343l-95.948525 240.763539L1172.978377 701.08311z m-1085.769437-89.908847l82.221984 60.945844-25.256836-35.551742-56.965148-25.394102z m-5.490616-92.791421l121.205362 174.327078 411.38445-200.544773L541.969262 251.264343 81.718324 518.382842zM210.198753 130.470777V425.591421l340.967292-197.662198 65.887399 218.25201 1.921716-551.944236L210.198753 130.470777z m8.098659 572.534049L723.708672 876.371046v-333.55496l-99.517426-38.434317L218.297412 703.004826z m974.584451-571.573191L634.074356-106.586595l-1.921716 563.2 90.595174-225.938874 470.134049 188.32815v-287.571046zM180.686688 690.513673l-101.301876-84.830027 67.94638 25.119571z"  horiz-adv-x="1642" />

    
    <glyph glyph-name="leimupinleifenleileibie" unicode="&#58961;" d="M320 832H192c-70.4 0-128-57.6-128-128v-128c0-70.4 57.6-128 128-128h128c70.4 0 128 57.6 128 128V704c0 70.4-57.6 128-128 128z m448 0H640c-70.4 0-128-57.6-128-128v-128c0-70.4 57.6-128 128-128h128c70.4 0 128 57.6 128 128V704c0 70.4-57.6 128-128 128zM320 384H192c-70.4 0-128-57.6-128-128v-128c0-70.4 57.6-128 128-128h128c70.4 0 128 57.6 128 128V256c0 70.4-57.6 128-128 128z m448 0H640c-70.4 0-128-57.6-128-128v-128c0-70.4 57.6-128 128-128h128c70.4 0 128 57.6 128 128V256c0 70.4-57.6 128-128 128z"  horiz-adv-x="1024" />

    
    <glyph glyph-name="IT" unicode="&#58898;" d="M1083.665547 847.445746a38.868561 38.868561 0 0 0 38.826632-38.826632v-666.363115A38.868561 38.868561 0 0 0 1083.665547 103.513226H87.338957a38.868561 38.868561 0 0 0-38.826632 38.826632V808.640079a38.868561 38.868561 0 0 0 38.826632 38.826631H1083.665547m0 48.53329H87.338957A87.590533 87.590533 0 0 1 0 808.661043v-666.405044a87.590533 87.590533 0 0 1 87.338957-87.338957H1083.665547a87.590533 87.590533 0 0 1 87.338957 87.338957V808.640079A87.590533 87.590533 0 0 1 1083.665547 895.979035zM34.864303 236.974531v-135.872246H1131.465072v135.872246zM583.17517 128.670871a40.33609 40.33609 0 1 0 40.33609 40.33609A40.33609 40.33609 0 0 0 583.17517 128.670871zM515.962329 69.466547h143.146999v-131.008435h-143.146999zM989.869462-128v45.095078a33.920891 33.920891 0 0 1-33.816068 33.816068H251.3668a33.920891 33.920891 0 0 1-33.816067-33.816068v-45.095078z"  horiz-adv-x="1171" />

    
    <glyph glyph-name="yewu" unicode="&#58909;" d="M636.35456 347.1872v-120.1408h-249.1392V347.1872H0v-427.48928h1023.5648V347.1872h-387.21024zM448.9216 405.15584h120.22272v-115.9424H448.9216V405.15584zM974.80704 648.24832a59.60704 59.60704 0 0 1-8.04864 0.55808h-200.68352v82.53952c0 64.32256-54.57408 116.95104-121.2672 116.95104H378.76736c-66.69824 0-121.27232-52.62848-121.27232-116.95104V648.8064H56.8064c-2.73408 0-5.41696-0.19968-8.04864-0.55808H0V402.0224h387.05152V467.32288h244.85376V402.0224h391.6544V648.24832h-48.75264zM389.9648 676.224c0 33.83808 28.70784 61.5168 63.79008 61.5168h116.06016c35.08224 0 63.78496-27.68384 63.78496-61.5168v-27.4176H389.9648v27.4176z"  horiz-adv-x="1024" />

    
    <glyph glyph-name="shezhi" unicode="&#58951;" d="M952.9 472.4c0.4-2.1 9.4-50.7 9.4-89 0-39.1-9.3-88.5-9.4-89-5.3-28-22.3-46.2-44.1-46.2H905c-60.8 0-110.2-49.9-110.2-111.3 0-19.8 9.5-42.3 9.6-42.5 10.9-24.7 2.5-55-20.9-71.4l-115-64c-7.2-3.1-15-4.7-23.2-4.7-17.7 0-34.9 7.4-46.1 19.9-12.5 13.8-55.8 53.3-89.6 53.3-31.2 0-73.4-35.2-89-52.3-11.1-12.2-28.3-19.5-45.8-19.5-8.4 0-16.3 1.6-25 5.5L239 23.9c-22 15.5-30.3 45.9-19.4 70.6 0.1 0.2 9.6 22.5 9.6 42.4 0 61.3-49.4 111.3-110.2 111.3h-4.6c-21 0-38 18.1-43.3 46.2-0.4 2.1-9.4 50.9-9.4 89 0 38.2 9 87 9.4 89 5.3 28.1 22.2 46.2 44 46.2h3.8c60.8 0 110.2 49.9 110.2 111.3 0 20.1-9.5 42.3-9.6 42.5-10.9 24.7-2.5 55.1 21 71.5l117.1 64.7c7.2 3.1 15 4.6 23.2 4.6 17.5 0 34.6-7.1 45.8-19.1 12.3-13 54.8-50.2 87.6-50.2 32.5 0 74.8 36.4 87 49.2 11.2 11.7 28.2 18.7 45.5 18.7 8.4 0 16.4-1.6 25.1-5.4l113-63.6c22-15.5 30.4-45.8 19.5-70.6-0.1-0.2-9.6-22.5-9.6-42.4 0-61.3 49.5-111.3 110.2-111.3h4.6c21.1 0.1 38.1-18 43.4-46.1zM671.7 371.2c0 88.8-71.6 161-159.5 161s-159.5-72.2-159.5-161 71.5-161 159.5-161 159.5 72.2 159.5 161z"  horiz-adv-x="1024" />

    
    <glyph glyph-name="fabu1" unicode="&#58889;" d="M891.86304 70.1952l-429.4144 132.13184 429.4144 495.47776-561.54112-495.47776L0 334.44864 1057.024 896zM462.44864-128v231.22944l132.13184-66.06848z"  horiz-adv-x="1058" />

    
    <glyph glyph-name="fuwu" unicode="&#58895;" d="M736.3 204.9c-44.9-77.5-127.6-125.2-217.2-125.4-89.6 0.2-172.3 47.9-217.2 125.4-7.1 11.1-7.5 25.2-1 36.7 6.4 11.5 18.6 18.5 31.8 18.4 13.2-0.2 25.2-7.6 31.3-19.2 32-55.4 91.1-89.5 155.1-89.7 64 0.1 123 34.2 155.1 89.6 6.4 11.2 18.2 18.1 31.1 18.1 12.9 0 24.7-6.8 31.1-18 6.5-11 6.4-24.7-0.1-35.9m98.5 447.9H189.3c-39.4 0-71.3-32-71.4-71.4v-573.7c0-39.4 32-71.5 71.4-71.5h645.4c39.4 0.1 71.3 32 71.4 71.4V581.4c0 39.4-31.9 71.2-71.3 71.4M512.1 760.2c59.2 0 107.5-48.2 107.5-107.5h71.7c0 98.8-80.4 179.1-179.1 179.1-98.8 0-179.1-80.4-179.1-179.1h71.6c-0.1 59.2 48.1 107.5 107.4 107.5"  horiz-adv-x="1024" />

    
    <glyph glyph-name="qiyerenzheng" unicode="&#59000;" d="M884.816314 326.294588c-2.730667 1.807059-12.127373 2.570039-30.840471 2.69051l-4.577882 0.120471a204.8 204.8 0 0 1-12.247843-0.361412c-115.370667-5.220392-211.225098-98.745725-206.848-213.152628 0-6.184157 0.321255-12.328157 0.843294-18.391843 0.562196-8.95498 1.164549-14.054902 2.048-16.143059 16.946196-101.476392 107.25898-178.979137 216.204549-178.979137 120.992627 0 219.095843 95.61349 219.095843 213.473883 0 106.255059-79.510588 194.278902-183.67749 210.743215z m122.558745-194.359215l-0.602353-0.602353-160.185726-154.282667a30.037333 30.037333 0 0 0-41.361568 0l-93.003294 89.549804a27.547608 27.547608 0 0 0-0.562196 39.273412l0.562196 0.562196a29.997176 29.997176 0 0 0 41.321411 0l72.362667-69.632 139.545098 134.324706a30.07749 30.07749 0 0 0 41.321412 0 27.547608 27.547608 0 0 0 8.593569-19.476079 27.627922 27.627922 0 0 0-7.991216-19.717019z m-436.986981 39.835607H272.062745v89.067922h68.427294v160.306196h98.625255v-160.306196h36.22149v243.350588h98.625255v-91.035608h122.75953v-61.158902a287.322353 287.322353 0 0 0 152.636235 43.65051c24.696471 0 48.629961-3.092078 71.479216-8.874666 0.160627 3.373176 0.240941 6.706196 0.240941 9.999058V715.414588c-192.110431 0-304.107922 71.639843-408.154353 150.467765C408.796863 787.054431 296.719059 715.414588 104.688941 715.414588v-318.644706c0-165.285647 216.124235-456.985098 408.274824-456.985098 32.326275 0 65.335216 8.352627 97.902431 22.889412a275.315451 275.315451 0 0 0-40.478118 209.096784z m-308.404705 328.483138c80.51451 39.55451 144.203294 89.027765 191.186823 148.419764h104.648784l10.039216-9.878588c61.680941-52.766118 125.450039-93.685961 191.186824-122.679216l-38.229334-94.97098c-83.20502 38.229333-152.95749 85.092392-209.297568 140.508863-52.324392-60.67702-120.109176-112.158118-203.27404-154.362981L261.983373 500.254118z m347.035607-239.455373l29.515295 43.168628c5.220392 5.621961 10.681725 11.00298 16.384 16.183215h-80.956236v-59.351843h35.056941z"  horiz-adv-x="1089" />

    


  </font>
</defs>
</svg>
